<svg id="vector" xmlns="http://www.w3.org/2000/svg" width="24" height="24" viewBox="0 0 1792 1792"><path fill="#000" d="M596.6,1410.2Q596.6,1490.2 540.6,1546.2 484.6,1602.2 404.6,1602.2 324.6,1602.2 268.6,1546.2 212.6,1490.2 212.6,1410.2q0,-80 56,-136 56,-56 136,-56 80,-0 136,56 56,56 56,136zM1108.6,1533.2Q1110.6,1561.2 1091.6,1581.2 1073.6,1602.2 1044.6,1602.2L909.6,1602.2Q884.6,1602.2 866.6,1585.7 848.6,1569.2 846.6,1544.2 824.6,1315.2 662.1,1152.7 499.6,990.2 270.6,968.2 245.6,966.2 229.1,948.2 212.6,930.2 212.6,905.2l0,-135q0,-29 21,-47 17,-17 43,-17l5,-0Q441.6,719.2 587.6,786.7 733.6,854.2 846.6,968.2 960.6,1081.2 1028.1,1227.2 1095.6,1373.2 1108.6,1533.2zM1620.6,1535.2Q1622.6,1562.2 1602.6,1582.2 1584.6,1602.2 1556.6,1602.2L1413.6,1602.2Q1387.6,1602.2 1369.1,1584.7 1350.6,1567.2 1349.6,1542.2 1337.6,1327.2 1248.6,1133.7 1159.6,940.2 1017.1,797.7 874.6,655.2 681.1,566.2 487.6,477.2 272.6,464.2 247.6,463.2 230.1,444.7 212.6,426.2 212.6,401.2l0,-143q0,-28 20,-46 18,-18 44,-18l3,-0Q541.6,207.2 781.1,314.2 1020.6,421.2 1206.6,608.2 1393.6,794.2 1500.6,1033.7 1607.6,1273.2 1620.6,1535.2z" id="path_0"/></svg>