<svg width="164" height="115" viewBox="0 0 164 115" fill="none" xmlns="http://www.w3.org/2000/svg">
<g clip-path="url(#clip0_52_2)">
<path d="M159.865 17.8497C157.983 10.8201 152.459 5.29593 145.429 3.41421C132.701 0.000245163 81.6391 0.000244141 81.6391 0.000244141C81.6391 0.000244141 30.5776 0.000245163 17.8491 3.41421C10.8196 5.29593 5.29544 10.8201 3.41373 17.8497C-0.000243119 30.5781 -0.000244141 57.1506 -0.000244141 57.1506C-0.000244141 57.1506 -0.000243119 83.7233 3.41373 96.4518C5.29544 103.481 10.8196 109.005 17.8491 110.887C30.5776 114.301 81.6391 114.301 81.6391 114.301C81.6391 114.301 132.701 114.301 145.429 110.887C152.459 109.005 157.983 103.481 159.865 96.4518C163.279 83.7233 163.279 57.1506 163.279 57.1506C163.279 57.1506 163.265 30.5781 159.865 17.8497Z" fill="#FF0000"/>
<path d="M65.2958 81.6419L107.715 57.1529L65.2958 32.6636V81.6419Z" fill="white"/>
</g>
<defs>
<clipPath id="clip0_52_2">
<rect width="164" height="115" fill="white"/>
</clipPath>
</defs>
</svg>
